# xmcd
#
# Track frame offsets:
#   150
#   18996
#   36367
#   53685
#   68354
#   88307
#   104569
#   119267
#   131991
#   146770
#   166429
#   184507
#   201519
#   219342
#   236362
#   251966
#   269938
#   285205
#   303640
#   320891
#
# Disc length: 4458 seconds
#
# Revision: 0
# Processed by: cddbd v1.5.2PL0 Copyright (c) Steve Scherf et al.
# Submitted via: Media_Universe 3.0
#
DISCID=3b116814
DTITLE=André Hazes - André Hazes - De Hazes 100 cd 2
DYEAR=2006
DGENRE=Folk
TTITLE0=André Hazes - Alsjeblieft Laat Me Zeggen Schat
TTITLE1=André Hazes - Diep In Mijn Hart
TTITLE2=André Hazes - Want Ik Hou Van Jou
TTITLE3=André Hazes - Op De Hoek Van De Straat
TTITLE4=André Hazes - Zo Heb Ik Het Nooit Bedoeld
TTITLE5=André Hazes - Wat Is Dan Liefde
TTITLE6=André Hazes - De Hoogste Tijd
TTITLE7=André Hazes - Wij Houden Van Oranje
TTITLE8=André Hazes - Ik Heb 't Altijd Geweten
TTITLE9=André Hazes - Het Laatste Rondje
TTITLE10=André Hazes - Liefde, Leven, Geven
TTITLE11=André Hazes - Blijf Bij Mij
TTITLE12=André Hazes - Leef Nu Maar Je Eigen Leven
TTITLE13=André Hazes - Amor, Amor, Amor
TTITLE14=André Hazes - Donker Om Je Heen
TTITLE15=André Hazes - Poei Poei
TTITLE16=André Hazes - Mijn Kleine Meid
TTITLE17=André Hazes - Al Jouw Woorden Zijn Te Veel
TTITLE18=André Hazes - Zondag
TTITLE19=André Hazes - Je Ouwe Heer
EXTD=
EXTT0=
EXTT1=
EXTT2=
EXTT3=
EXTT4=
EXTT5=
EXTT6=
EXTT7=
EXTT8=
EXTT9=
EXTT10=
EXTT11=
EXTT12=
EXTT13=
EXTT14=
EXTT15=
EXTT16=
EXTT17=
EXTT18=
EXTT19=
PLAYORDER=
